<?xml version="1.0" standalone="no"?>
<!DOCTYPE svg PUBLIC "-//W3C//DTD SVG 20010904//EN"
 "http://www.w3.org/TR/2001/REC-SVG-20010904/DTD/svg10.dtd">
<svg version="1.0" xmlns="http://www.w3.org/2000/svg"
 width="96.000000pt" height="96.000000pt" viewBox="0 0 96.000000 96.000000"
 preserveAspectRatio="xMidYMid meet">

<g transform="translate(0.000000,96.000000) scale(0.100000,-0.100000)"
fill="#000000" stroke="none">
<path d="M432 880 c-12 -12 -22 -25 -22 -30 0 -6 -54 -10 -130 -10 l-130 0 0
-375 0 -375 330 0 330 0 0 375 0 375 -123 0 -122 0 -28 30 c-34 36 -73 39
-105 10z m76 -72 c3 -26 7 -28 48 -28 42 0 44 -1 44 -30 l0 -30 -120 0 -120 0
0 30 c0 29 2 30 45 30 40 0 45 2 45 23 0 30 9 39 35 35 13 -2 21 -12 23 -30z
m-208 -88 l0 -60 180 0 180 0 0 60 0 60 45 0 45 0 0 -315 0 -315 -270 0 -270
0 0 315 0 315 45 0 45 0 0 -60z"/>
<path d="M435 469 l-103 -100 -15 -77 c-8 -42 -14 -78 -13 -79 1 -1 35 5 76
13 l75 15 103 103 c87 88 102 108 102 135 0 44 -47 91 -91 91 -27 0 -47 -15
-134 -101z m159 25 c9 -23 -4 -41 -92 -126 -82 -80 -122 -99 -122 -57 0 26
166 199 191 199 9 0 20 -7 23 -16z"/>
</g>
</svg>
