<?xml version="1.0" standalone="no"?>
<!DOCTYPE svg PUBLIC "-//W3C//DTD SVG 20010904//EN"
 "http://www.w3.org/TR/2001/REC-SVG-20010904/DTD/svg10.dtd">
<svg version="1.0" xmlns="http://www.w3.org/2000/svg"
 width="96.000000pt" height="96.000000pt" viewBox="0 0 96.000000 96.000000"
 preserveAspectRatio="xMidYMid meet">

<g transform="translate(0.000000,96.000000) scale(0.100000,-0.100000)"
fill="#000000" stroke="none">
<path d="M285 761 c-22 -10 -48 -27 -57 -37 -25 -29 -48 -89 -48 -126 0 -38
29 -107 53 -127 15 -12 13 -16 -24 -41 -47 -31 -94 -96 -109 -149 -17 -60 -14
-71 20 -71 24 0 30 4 30 23 1 33 34 99 66 129 82 77 204 76 287 -1 l40 -38
-16 -42 c-24 -59 -22 -71 12 -71 24 0 31 5 36 29 3 15 20 41 36 57 43 42 115
42 158 0 16 -16 33 -42 36 -57 5 -24 12 -29 36 -29 21 0 29 5 29 18 -1 30 -37
98 -64 119 -25 20 -25 21 -10 53 22 44 12 96 -26 135 -26 25 -38 30 -80 30
-42 0 -54 -5 -80 -30 -38 -39 -48 -91 -26 -136 9 -18 14 -34 11 -37 -2 -3 -27
16 -54 41 -28 26 -56 47 -62 47 -7 0 -3 10 9 23 51 54 64 134 33 202 -22 48
-44 69 -94 90 -48 20 -93 19 -142 -4z m159 -80 c26 -27 31 -39 31 -81 0 -43
-5 -54 -33 -82 -28 -28 -39 -33 -82 -33 -43 0 -54 5 -82 33 -28 28 -33 39 -33
81 0 52 25 92 70 112 37 16 96 3 129 -30z m286 -191 c11 -11 20 -29 20 -40 0
-26 -34 -60 -60 -60 -11 0 -29 9 -40 20 -11 11 -20 29 -20 40 0 11 9 29 20 40
11 11 29 20 40 20 11 0 29 -9 40 -20z"/>
</g>
</svg>
