<svg xmlns="http://www.w3.org/2000/svg" xmlns:xlink="http://www.w3.org/1999/xlink" version="1.1" width="1080pt" height="1080pt" viewBox="0 0 1080 1080">
<defs>
<clipPath id="clip_0">
<path transform="matrix(1,0,0,-1,0,1080)" d="M0 1080H1080V0H0Z"/>
</clipPath>
</defs>
<g id="layer_1" data-name="">
<g clip-path="url(#clip_0)">
<path transform="matrix(1,0,0,-1,871.5333,683.84426)" d="M0 0C0 7.484 .125 14.972-.091 22.449-.143 24.228-.831 26.553-2.082 27.645-13.601 37.706-31.274 32.639-33.782 17.765-35.528 7.409-35.692-3.658-34.096-14.028-31.712-29.522-18.814-35.147-4.411-28.681-1.277-27.275 .24-25.519 .088-21.84-.213-14.572-.001-7.281 0 0M-29.283-71.28C-31.9-70.467-34.486-69.53-37.139-68.864-47.688-66.216-47.915-65.944-48.291-53.589-40.666-55.603-32.994-57.681-25.288-59.623-23.543-60.063-21.671-60.227-19.868-60.177 .696-59.602 1.282-53.195-.526-38.152-10.444-41.423-20.4-42.994-30.887-41.129-40.931-39.343-47.658-33.877-50.911-24.668-56.91-7.685-56.813 9.653-50.723 26.52-44.185 44.63-26.414 47.058-10.11 42.726-6.841 41.856-3.805 40.112-.379 38.651-.122 40.431 .099 41.967 .37 43.845H24.054V37.327C24.054 11.601 24.057-14.124 24.052-39.85 24.049-58.391 17.629-66.198-.649-70.006-1.72-70.229-2.71-70.846-3.737-71.28Z" fill="#0fa389"/>
<path transform="matrix(1,0,0,-1,28.4315,614.0138)" d="M0 0C.411-.006 .821-.012 1.231-.019 1.184-35.739 1.137-71.459 1.09-107.178L.527-107.263 0-107.049Z" fill="#0fa389"/>
<path transform="matrix(1,0,0,-1,347.2978,726.1678)" d="M0 0C0 18.148 0 34.945-.001 51.742-.001 52.958-.019 54.173-.014 55.389 .062 73.716-4.156 81.758-28.251 78.608-29.808 78.404-31.342 78.025-33.331 77.642-26.154 63.471-28.74 48.503-28.32 33.863-28.128 27.183-28.258 20.494-28.295 13.808-28.346 4.55-30.628 1.886-39.736 .778-42.914 .392-46.146 .455-50.051 .283-50.175 2.8-50.359 4.927-50.372 7.055-50.474 23.26-50.533 39.465-50.635 55.669-50.646 57.489-50.861 59.307-50.939 61.128-51.581 76.265-59.166 80.502-76.217 78.89-77.326 78.785-78.924 75.4-78.945 73.526-79.15 55.093-79.069 36.657-79.069 18.222-79.07 2.634-81.183 .516-96.891 .366-98.077 .355-99.263 .365-100.791 .365-101.013 1.822-101.335 2.958-101.337 4.094-101.367 27.998-101.431 51.903-101.228 75.806-101.212 77.637-99.6 80.697-98.166 81.082-82.272 85.342-66.023 89.323-49.701 85.224-40.546 82.924-32.272 85.288-23.566 85.725-14.539 86.178-5.359 86.085 3.588 84.938 14.027 83.601 20.802 76.597 21.419 66.287 22.544 47.52 22.598 28.667 22.323 9.861 22.282 7.066 18.517 2.982 15.582 1.886 11.06 .197 5.765 .577 0 0" fill="#0fa389"/>
<path transform="matrix(1,0,0,-1,51.5319,718.3869)" d="M0 0C6.4 0 12.236-.251 18.044 .049 32.689 .806 39.566 6.031 41.417 20.383 42.742 30.653 42.59 41.388 41.222 51.665 39.211 66.779 28.385 73.102 13.389 69.518 5.264 67.576 .259 62.511 .104 54.412-.233 36.849 0 19.274 0 0M-22.01-2.806C-21.963 32.914-21.916 68.635-21.869 104.355-2.185 105.477-.122 103.557-.122 84.109V69.872C11.883 79.909 25.057 79.402 38.464 77.599 49.594 76.102 57.907 70.668 61.793 59.896 66.953 45.593 67.521 30.936 62.849 16.43 59.156 4.964 50.876-2.246 39.204-4.965 18.653-9.755-1.725-6.95-22.01-2.806" fill="#0fa389"/>
<path transform="matrix(1,0,0,-1,214.0393,683.94509)" d="M0 0C-.679 6.875-1.004 12.935-1.928 18.902-3.45 28.74-7.831 32.812-16.306 32.938-25.417 33.073-31.215 28.841-32.13 18.953-33.163 7.781-32.71-3.556-32.386-14.807-32.299-17.837-30.743-21.05-29.152-23.765-25.55-29.915-19.478-30.519-13.183-29.728-7.271-28.986-3.599-25.358-2.587-19.617-1.401-12.884-.775-6.054 0 0M23.86 1.384C23.293-3.635 23.044-8.714 22.101-13.662 18.837-30.779 9.17-39.549-9.045-41.64-14.434-42.258-20.023-42.271-25.403-41.608-44.501-39.254-54.503-29.693-56.638-10.365-57.642-1.278-57.296 8.278-55.642 17.269-52.756 32.964-42.141 41.847-26.521 43.968-19.78 44.883-12.678 44.878-5.956 43.863 12.995 41.001 21.602 30.122 23.34 8.101 23.515 5.888 23.364 3.65 23.364 1.424 23.529 1.41 23.694 1.397 23.86 1.384" fill="#0fa389"/>
<path transform="matrix(1,0,0,-1,735.3418,725.7096)" d="M0 0V79.635C18.42 84.702 37.017 88.886 56.346 83.684 65.403 81.246 70.872 74.7 71.349 65.789 72.356 47 72.371 28.149 72.428 9.323 72.442 4.606 69.385 1.471 64.403 .9 60.205 .419 55.993 .058 50.984-.434 50.846 2.24 50.667 4.357 50.639 6.475 50.394 24.911 50.335 43.35 49.903 61.78 49.521 78.055 36.905 79.606 24.705 78.17 23.597 78.04 22.128 74.554 22.108 72.614 21.913 53.765 21.993 34.913 21.99 16.062 21.987 2.819 19.92 .637 6.714 .013 4.711-.081 2.701 0 0 0" fill="#0fa389"/>
<path transform="matrix(1,0,0,-1,975.4607,677.1065)" d="M0 0C-1.081 10.882-.058 22.131-10.755 28.065-19.958 33.17-30.218 33.039-39.12 27.274-48.774 21.022-48.563 10.374-49.32 0ZM22.808-7.479H-48.581C-51.236-25.561-40.977-39.071-23.475-40.141-14.429-40.695-5.295-39.826 3.798-39.559 7.765-39.443 11.957-38.598 14.885-44.385 10.824-45.266 7.264-46.22 3.644-46.794-11.861-49.254-27.388-49.487-42.868-46.619-59.306-43.574-68.073-35.965-70.291-19.459-71.743-8.649-71.062 2.745-69.423 13.588-67.725 24.832-59.97 32.134-48.749 35.056-33.195 39.105-17.547 39.181-1.899 35.583 10.667 32.693 18.229 24.753 20.56 12.163 21.692 6.052 22.005-.21 22.808-7.479" fill="#0fa389"/>
<path transform="matrix(1,0,0,-1,704.8337,677.0893)" d="M0 0C1 21.82-7.126 31.89-24.727 31.249-41.416 30.641-50.447 18.711-48.129 0ZM15.391-44.335C.042-48.522-14.764-49.285-29.714-48.252-34.343-47.933-38.955-47.195-43.54-46.44-57.708-44.107-66.208-35.707-69.47-21.849-72.258-10-71.989 1.865-69.119 13.626-65.92 26.73-56.856 33.689-44.083 36.164-30.641 38.769-17.122 38.847-3.664 36.201 10.045 33.507 18.862 25.604 21.245 11.532 22.25 5.599 22.568-.449 23.287-7.291H-48.012C-50.62-25.673-40.429-39.068-22.884-40.164-13.84-40.729-4.704-39.845 4.389-39.573 8.359-39.455 12.545-38.634 15.391-44.335" fill="#0fa389"/>
<path transform="matrix(1,0,0,-1,401.273,677.8852)" d="M0 0H49.283C48.569 10.367 49.29 21.224 39.708 27.533 30.686 33.473 20.122 33.239 10.88 27.898 .552 21.929 .775 10.953 0 0M63.963-44.436C58.705-45.402 53.616-47.074 48.509-47.134 34.383-47.3 20.121-47.886 6.15-46.266-10.222-44.367-19.331-34.852-21.099-18.364-22.222-7.883-21.596 3.014-20.095 13.486-18.337 25.76-9.747 32.808 2.061 35.725 16.033 39.178 30.148 39.18 44.259 36.617 59.389 33.87 68.388 24.972 70.416 9.586 71.124 4.214 71.201-1.242 71.624-7.526H35.852 .866C-1.43-25.475 7.659-38.107 24.567-39.607 34.778-40.513 45.156-39.509 55.459-39.428 58.861-39.401 62.535-39.048 63.963-44.436" fill="#0fa389"/>
<path transform="matrix(1,0,0,-1,555.4029,707.1953)" d="M0 0C11.65-5.949 23.004-8.937 35.278-6.791 42.822-5.473 46.016-2.195 46.578 5.145 47.145 12.552 44.757 16.438 37.317 18.671 29.198 21.109 20.796 22.636 12.735 25.232 2.635 28.484-1.216 33.778-1.572 43.226-1.991 54.328 3.306 61.786 14.859 64.833 29.603 68.721 44.487 68.674 59.228 64.441 63.908 63.096 64.071 62.606 66.063 52.214 56.095 53.284 45.866 54.564 35.601 55.369 32.682 55.599 29.237 55.16 26.801 53.724 24.537 52.389 22.064 49.371 21.959 46.995 21.859 44.711 24.169 41.078 26.315 40.18 32.048 37.781 38.259 36.523 44.286 34.831 47.397 33.958 50.601 33.349 53.623 32.239 65.661 27.816 70.339 21.635 70.34 10.494 70.341-3.171 65.375-11.223 53.49-15.355 37.614-20.875 21.605-19.527 5.736-15.035 4.454-14.672 2.927-13.226 2.553-11.973 1.477-8.368 .935-4.604 0 0" fill="#0fa389"/>
<path transform="matrix(1,0,0,-1,546.2775,654.9424)" d="M0 0C-9.744 1.07-19.639 2.208-29.549 3.194-31.326 3.371-33.185 3.033-34.974 2.739-39.674 1.966-43.712 .18-44.175-5.296-44.655-10.965-40.098-12.342-36.086-13.537-29.117-15.612-21.935-16.972-14.968-19.05 1.334-23.914 6.693-32.51 3.989-49.019 2.475-58.264-2.879-64.39-11.653-67.432-27.763-73.018-43.912-71.829-60.001-67.297-61.142-66.975-62.586-65.845-62.896-64.797-64.016-61-64.712-57.078-65.805-52.131-54.076-58.234-42.883-61.07-30.809-59.086-23.136-57.825-19.697-54.494-19.107-47.496-18.46-39.834-20.938-35.836-28.595-33.483-37.848-30.639-47.59-29.081-56.471-25.398-69.88-19.837-71.585-.593-59.848 8.085-56.842 10.307-53.135 11.963-49.499 12.88-36.96 16.04-24.244 16.198-11.589 13.522-1.669 11.424-.42 9.645 0 0" fill="#0fa389"/>
<path transform="matrix(1,0,0,-1,1005.6579,725.518)" d="M0 0V85.024C12.577 87.971 19.072 84.877 23.159 73.418 29.279 81.376 37.26 85.197 46.829 86.422 62.306 88.403 65.968 84.898 63.933 70.348 56.304 71.617 48.728 73.564 41.071 73.972 31.925 74.459 25.801 69.683 24.201 60.664 22.835 52.968 22.921 44.987 22.705 37.122 22.477 28.824 22.701 20.515 22.638 12.211 22.576 4.126 20.108 1.062 12.224 .085 8.3-.402 4.267 0 0 0" fill="#0fa389"/>
<path transform="matrix(1,0,0,-1,126.0778,725.6763)" d="M0 0V85.354C.877 85.59 1.609 85.933 2.354 85.965 22.38 86.812 22.649 86.551 22.649 66.628 22.649 49.432 22.656 32.236 22.646 15.04 22.638 3.823 20.801 1.728 9.619 .473 6.653 .14 3.646 .168 0 0" fill="#0fa389"/>
<path transform="matrix(1,0,0,-1,558.9717,403.50093)" d="M0 0C-.129 11.141-9.205 19.846-20.444 19.609-31.219 19.382-40.124 10.188-39.903-.484-39.681-11.232-30.612-20.222-19.957-20.256-8.997-20.292 .128-11.03 0 0M150.267 119.659H144.227 73.702C69.169 131.626 61.414 138.997 48.302 139.005 35.615 139.013 24.9 129.472 23.27 116.929 21.692 104.785 29.614 92.76 41.425 89.372 53.639 85.867 67.159 91.689 71.535 103.529 73.56 109.005 76.394 109.602 81.257 109.56 104.568 109.361 127.882 109.378 151.193 109.562 155.054 109.592 156.994 108.428 158.243 104.761 166.267 81.218 166.397 57.78 156.859 34.724 149.625 17.238 136.181 6.063 117.845-.285 119.043-1.039 119.718-1.623 120.501-1.933 152.501-14.59 168.502-38.803 169.869-72.508 171.944-123.695 144.716-164.876 92.394-176.783 90.27-177.267 88.094-177.527 85.392-177.985 85.566-176.687 85.473-175.888 85.782-175.301 91.37-164.71 91.754-153.346 91.572-141.675 91.211-118.571 91.547-95.457 91.386-72.348 91.359-68.456 92.161-66.36 96.192-64.741 107.625-60.148 113.651-48.201 111.123-36.619 108.457-24.402 97.931-15.777 85.986-16.019 74.053-16.261 63.988-24.651 61.333-36.571 58.797-47.954 64.99-60.28 76.35-64.708 80.737-66.417 81.383-68.736 81.362-72.776 81.22-99.534 81.919-126.316 80.921-153.038 80.604-161.538 76.054-169.912 73.143-178.24 72.819-179.167 70.542-179.88 69.161-179.896 57.818-180.027 46.473-179.97 35.162-179.97 32.767-171.505 33.308-170.174 40.54-166.527 50.92-161.293 56.41-149.765 53.858-138.558 51.104-126.465 41.238-118.55 28.973-118.594 16.967-118.637 7.368-126.285 4.37-138.197 1.613-149.153 7.075-161.023 17.337-166.38 24.592-170.166 24.592-170.166 23.323-179.703H-121.713C-120.233-178.122-119.128-176.858-117.935-175.683-101.193-159.184-84.808-142.297-67.551-126.354-56.873-116.489-45.097-107.747-33.355-99.124-27.381-94.737-24.929-89.984-25.235-82.469-25.853-67.29-25.563-52.066-25.324-36.866-25.26-32.795-26.341-31.009-30.425-29.624-44.726-24.775-53.017-10.582-50.977 4.42-49.011 18.874-36.531 30.116-21.36 31.099-7.248 32.013 6.148 22.411 10.246 8.444 15.108-8.131 6.502-23.498-12.011-30.867V-79.748C-11.122-79.263-10.238-78.98-9.615-78.411 13.575-57.243 33.194-33.255 49.868-6.552 71.431 27.979 48.522 64.821 16.879 74.143 4.158 77.891-8.258 76.833-20.463 71.491-55.489 56.16-85.264 33.34-112.686 7.154-121.149-.928-129.368-9.266-138.194-17.976V84.864C-136.705 85.48-134.875 86.195-133.078 86.985-122.022 91.847-115.878 103.602-118.209 115.399-120.469 126.835-130.595 135.271-142.415 135.565-154.378 135.862-164.984 128.032-167.756 116.859-170.761 104.742-165.335 92.43-153.995 87.57-149.581 85.678-148.667 83.346-148.69 78.973-148.867 45.526-148.993 12.074-148.609-21.37-148.535-27.872-150.273-32.719-154.973-36.773-167.862-47.891-180.771-58.986-193.695-70.062-193.914-70.25-194.436-70.086-195.19-70.086V-26.87C-189.85-26.87-184.475-26.939-179.102-26.856-169.308-26.702-164.023-21.568-163.983-11.816-163.887 11.293-163.879 34.404-163.991 57.513-164.036 66.91-169.331 72.061-178.79 72.279-184.031 72.399-189.278 72.301-195.037 72.301V159.299C-193.462 159.438-191.736 159.723-190.01 159.724-107.707 159.734-25.404 159.77 56.899 159.677 80.72 159.65 103.665 155.488 124.638 143.479 134.575 137.789 143.139 130.505 150.267 119.659" fill="#0fa389"/>
<path transform="matrix(1,0,0,-1,380.5197,380.79969)" d="M0 0C0-7.894 .079-15.789-.022-23.682-.124-31.668-3.502-35.005-11.599-35.043-27.388-35.115-43.176-35.128-58.964-35.037-66.596-34.992-70.24-31.609-70.338-23.934-70.544-7.946-70.547 8.049-70.331 24.036-70.23 31.495-66.443 35.19-58.903 35.285-43.117 35.483-27.325 35.474-11.539 35.3-3.509 35.211-.123 31.618-.022 23.683 .078 15.79 0 7.894 0 0" fill="#0fa389"/>
<path transform="matrix(1,0,0,-1,307.1385,497.12324)" d="M0 0C-6.893-.002-13.787-.093-20.678 .024-27.183 .134-30.375 3.272-30.421 9.76-30.519 23.748-30.523 37.737-30.417 51.725-30.37 58.026-27.38 61.182-21.149 61.251-6.959 61.407 7.234 61.398 21.424 61.259 27.854 61.197 30.739 58.318 30.802 51.896 30.941 37.706 30.948 23.513 30.792 9.323 30.723 3.084 27.584 .145 21.286 .031 14.193-.097 7.096 .002 0 0" fill="#0fa389"/>
<path transform="matrix(1,0,0,-1,231.7395,394.3473)" d="M0 0C.002 5.672-.048 11.344 .018 17.015 .077 22.174 2.817 24.927 7.935 24.966 19.48 25.054 31.027 25.044 42.572 24.972 47.421 24.943 50.244 22.298 50.308 17.48 50.464 5.734 50.421-6.016 50.341-17.763 50.308-22.652 47.534-25.354 42.746-25.417 31.203-25.567 19.655-25.563 8.111-25.437 2.767-25.379-.06-22.522-.013-17.015 .035-11.344-.002-5.672 0 0" fill="#ef6522"/>
<path transform="matrix(1,0,0,-1,380.6663,532.4756)" d="M0 0C-4.444 0-8.889 .021-13.333-.006-17.858-.034-19.997 2.231-19.987 6.703-19.969 15.591-19.984 24.481-19.978 33.37-19.976 37.584-17.64 39.852-13.647 39.93-4.559 40.107 4.536 40.088 13.624 39.938 17.67 39.871 19.993 37.508 20.03 33.396 20.112 24.507 20.109 15.618 20.04 6.729 20.006 2.402 17.916-.06 13.333-.01 8.889 .038 4.444 0 0 0" fill="#0fa389"/>
<path transform="matrix(1,0,0,-1,399.6241,293.43904)" d="M0 0C-.157 8.845 7.051 16.303 15.917 16.469 24.656 16.633 32.247 9.292 32.433 .499 32.617-8.185 25.233-15.798 16.423-16.007 7.723-16.213 .156-8.838 0 0" fill="#0fa389"/>
<path transform="matrix(1,0,0,-1,623.5708,289.9469)" d="M0 0C-.08-8.973-7.345-16.14-16.233-16.013-25.162-15.885-32.125-8.649-32.03 .404-31.935 9.43-24.697 16.608-15.827 16.472-6.918 16.336 .08 9.052 0 0" fill="#0fa389"/>
<path transform="matrix(1,0,0,-1,572.0691,547.0362)" d="M0 0C.125 8.99 7.402 16.057 16.338 15.868 25.257 15.679 32.179 8.387 32.037-.67 31.897-9.599 24.464-16.835 15.669-16.603 6.733-16.367-.127-9.099 0 0" fill="#0fa389"/>
<path transform="matrix(1,0,0,-1,629.2514,444.82789)" d="M0 0C.073 9.084 7.276 16.09 16.358 15.912 25.141 15.739 31.993 8.739 32.034-.104 32.076-9.098 24.79-16.498 15.946-16.441 6.936-16.383-.073-9.156 0 0" fill="#0fa389"/>
</g>
</g>
</svg>
